<?xml version="1.0" standalone="no"?>
<!DOCTYPE svg PUBLIC "-//W3C//DTD SVG 20010904//EN"
 "http://www.w3.org/TR/2001/REC-SVG-20010904/DTD/svg10.dtd">
<svg version="1.0" xmlns="http://www.w3.org/2000/svg"
 width="545.000000pt" height="458.000000pt" viewBox="0 0 545.000000 458.000000"
 preserveAspectRatio="xMidYMid meet">
<metadata>
Created by potrace 1.16, written by Peter Selinger 2001-2019
</metadata>
<g transform="translate(0.000000,458.000000) scale(0.100000,-0.100000)"
fill="#000000" stroke="none">
<path d="M2732 3418 c-6 -13 -26 -50 -45 -83 -19 -33 -46 -82 -62 -110 -15
-27 -40 -72 -55 -100 -120 -214 -125 -223 -118 -230 2 -3 27 1 54 9 27 8 83
22 126 31 l76 17 13 44 c15 50 28 52 43 7 15 -44 16 -44 80 -37 66 8 67 12 36
108 -11 33 -42 128 -68 210 -26 82 -53 151 -58 153 -6 2 -16 -7 -22 -19z"/>
<path d="M2435 2697 c-119 -30 -116 -28 -173 -123 -29 -49 -55 -95 -59 -103
-4 -8 -40 -74 -81 -145 -41 -72 -86 -151 -99 -176 -14 -25 -34 -60 -45 -78
-11 -18 -18 -36 -14 -39 3 -3 29 6 58 20 29 14 87 41 128 60 41 19 109 50 150
70 41 19 109 50 150 69 41 20 109 51 150 71 41 19 100 46 130 60 250 114 274
129 236 143 -10 4 -177 -54 -301 -106 -11 -4 -36 -13 -55 -20 -19 -7 -44 -16
-55 -21 -99 -43 -257 -99 -266 -93 -7 4 111 196 130 214 4 3 36 51 74 108 l67
102 -42 -1 c-24 -1 -61 -6 -83 -12z"/>
<path d="M2931 2630 c36 -70 44 -80 63 -74 36 11 40 21 27 66 -8 24 -15 49
-17 56 -5 16 -47 32 -85 32 l-30 0 42 -80z"/>
<path d="M3295 2660 c-3 -5 -2 -10 4 -10 5 0 13 5 16 10 3 6 2 10 -4 10 -5 0
-13 -4 -16 -10z"/>
<path d="M3170 2614 c-47 -19 -90 -34 -96 -34 -15 0 -26 -28 -14 -35 5 -3 51
15 103 40 52 25 100 45 106 45 6 0 11 5 11 10 0 15 -18 11 -110 -26z"/>
<path d="M3022 2508 c-21 -21 -23 -17 83 -213 21 -40 25 -44 20 -20 -12 61
-72 239 -81 242 -5 2 -15 -2 -22 -9z"/>
<path d="M2326 1663 c-10 -10 -7 -301 3 -307 15 -9 21 21 21 99 0 63 3 76 19
85 27 14 37 13 55 -6 12 -11 16 -36 16 -96 0 -59 3 -79 13 -76 19 7 21 129 2
174 -15 36 -16 36 -60 32 l-45 -6 0 49 c0 45 -9 66 -24 52z"/>
<path d="M2970 1515 c0 -97 4 -155 10 -155 6 0 10 58 10 155 0 97 -4 155 -10
155 -6 0 -10 -58 -10 -155z"/>
<path d="M5230 1620 l0 -50 -49 0 c-66 0 -76 -15 -76 -106 0 -61 3 -77 21 -95
19 -19 27 -20 75 -12 l54 8 2 130 c1 72 0 140 -3 153 -8 41 -24 23 -24 -28z
m-18 -87 c26 -24 25 -116 -2 -143 -24 -24 -29 -24 -58 -4 -18 13 -22 25 -22
71 0 82 37 116 82 76z"/>
<path d="M100 1646 c0 -9 12 -16 33 -18 l32 -3 3 -132 c2 -104 6 -132 17 -137
13 -5 15 14 15 122 0 70 4 132 8 139 4 6 20 13 36 15 16 1 31 9 34 16 3 9 -19
12 -87 12 -72 0 -91 -3 -91 -14z"/>
<path d="M464 1649 c-3 -6 -1 -16 5 -22 8 -8 11 -5 11 11 0 24 -5 28 -16 11z"/>
<path d="M576 1629 c-45 -53 -28 -97 50 -134 58 -27 79 -54 69 -86 -14 -44
-91 -44 -115 1 -6 11 -15 20 -20 20 -19 0 -10 -31 16 -57 22 -22 32 -25 72
-20 54 6 72 25 72 77 0 42 -16 60 -81 93 -38 19 -44 27 -47 58 -2 29 1 37 21
48 28 15 60 3 77 -29 14 -25 30 -26 30 -1 0 28 -47 61 -85 61 -25 0 -40 -8
-59 -31z"/>
<path d="M1707 1654 c-12 -12 4 -24 33 -24 37 0 39 -9 43 -160 3 -159 21 -145
27 22 l5 133 33 5 c18 3 33 10 32 15 0 11 -162 20 -173 9z"/>
<path d="M3510 1640 c0 -19 3 -21 12 -12 9 9 9 15 0 24 -9 9 -12 7 -12 -12z"/>
<path d="M4127 1653 c-11 -10 -8 -293 2 -293 6 0 11 24 13 53 l3 52 52 5 c58
6 88 27 96 69 10 48 -6 84 -44 103 -33 18 -109 24 -122 11z m123 -43 c27 -27
25 -66 -5 -95 -26 -27 -73 -33 -93 -13 -16 16 -16 100 0 116 19 19 76 14 98
-8z"/>
<path d="M4783 1653 c-20 -7 -18 -276 1 -292 18 -15 128 -10 133 6 3 8 -14 13
-54 15 l-58 3 -5 136 c-4 102 -8 135 -17 132z"/>
<path d="M4556 1623 c-3 -3 -6 -14 -6 -24 0 -10 -8 -22 -17 -28 -17 -9 -17
-10 0 -16 14 -6 17 -20 17 -90 0 -86 12 -115 46 -115 19 0 18 26 -1 34 -23 8
-21 138 2 161 16 16 16 18 0 27 -9 5 -17 18 -17 28 0 20 -13 33 -24 23z"/>
<path d="M4997 1623 c-4 -3 -7 -14 -7 -24 0 -10 -8 -23 -17 -29 -17 -10 -17
-10 0 -20 13 -9 17 -25 17 -80 0 -83 12 -120 40 -120 23 0 27 18 5 26 -24 9
-21 159 3 174 16 10 16 10 0 20 -10 6 -18 22 -18 35 0 24 -10 32 -23 18z"/>
<path d="M320 1464 c0 -80 3 -105 13 -102 7 3 13 28 15 69 3 87 8 106 32 112
35 9 22 27 -20 27 l-40 0 0 -106z"/>
<path d="M460 1465 c0 -63 4 -105 10 -105 6 0 10 42 10 105 0 63 -4 105 -10
105 -6 0 -10 -42 -10 -105z"/>
<path d="M786 1560 c-2 -3 -3 -70 -2 -149 1 -106 4 -145 14 -148 8 -3 12 10
12 47 l0 51 43 -6 c64 -10 82 15 82 110 0 95 -9 106 -87 103 -33 -1 -61 -5
-62 -8z m106 -27 c13 -12 18 -31 18 -74 0 -48 -4 -60 -22 -73 -28 -20 -43 -20
-62 0 -20 19 -22 128 -3 149 16 19 47 19 69 -2z"/>
<path d="M1025 1550 c-23 -26 -11 -39 14 -16 11 10 30 16 43 14 18 -2 23 -9
23 -32 0 -26 -5 -31 -35 -39 -47 -12 -70 -34 -70 -67 0 -42 28 -61 86 -58 27
2 52 7 56 12 9 13 -2 167 -13 188 -14 26 -80 24 -104 -2z m80 -125 c0 -39 -1
-40 -35 -40 -28 0 -36 4 -38 22 -4 25 35 65 58 61 10 -2 15 -15 15 -43z"/>
<path d="M1232 1550 c-18 -17 -22 -32 -22 -86 0 -56 4 -68 25 -89 31 -32 77
-33 105 -3 36 39 25 50 -19 17 -36 -26 -65 -19 -81 22 -14 33 -8 102 10 124
18 21 50 18 77 -7 29 -27 41 -17 19 17 -21 32 -81 35 -114 5z"/>
<path d="M1431 1541 c-31 -43 -29 -129 4 -165 24 -26 63 -34 99 -20 31 12 17
26 -19 20 -27 -5 -39 -2 -55 14 -36 36 -23 55 42 58 68 4 80 22 51 80 -16 33
-23 37 -59 40 -37 3 -45 -1 -63 -27z m95 -17 c22 -33 8 -46 -42 -42 -44 3 -56
25 -29 52 24 23 52 20 71 -10z"/>
<path d="M1938 1553 c-40 -45 -39 -152 2 -185 32 -26 110 -23 110 4 0 6 -13 8
-33 4 -41 -8 -77 15 -77 50 0 23 3 24 59 24 42 0 60 4 64 14 7 18 -7 72 -24
92 -16 20 -83 18 -101 -3z m80 -15 c7 -7 12 -22 12 -35 0 -21 -5 -23 -45 -23
-40 0 -45 2 -45 23 0 29 18 47 45 47 12 0 26 -5 33 -12z"/>
<path d="M2131 1544 c-32 -41 -30 -136 4 -169 28 -29 70 -32 103 -9 22 15 30
44 12 44 -5 0 -10 -4 -10 -8 0 -5 -11 -15 -25 -22 -20 -11 -28 -10 -50 4 -22
15 -25 23 -25 76 0 64 15 90 54 90 12 0 28 -9 36 -20 17 -23 30 -26 30 -7 0
24 -36 47 -73 47 -27 0 -41 -7 -56 -26z"/>
<path d="M2533 1554 c-10 -25 2 -188 15 -192 9 -3 12 18 12 80 0 81 1 85 26
98 46 25 59 5 62 -94 2 -63 6 -86 15 -83 16 5 14 172 -3 192 -14 17 -120 17
-127 -1z"/>
<path d="M2761 1546 c-28 -29 -37 -83 -21 -130 22 -67 89 -87 135 -41 21 20
25 33 25 88 0 53 -4 67 -23 85 -32 30 -87 29 -116 -2z m91 -13 c40 -45 29
-146 -17 -157 -35 -9 -53 2 -65 40 -29 87 32 173 82 117z"/>
<path d="M3081 1544 c-32 -41 -30 -136 4 -169 15 -16 36 -25 55 -25 19 0 40 9
55 25 21 20 25 33 25 88 0 53 -4 67 -23 85 -34 32 -89 30 -116 -4z m92 -12
c24 -26 31 -75 17 -116 -21 -63 -83 -61 -100 5 -24 89 33 166 83 111z"/>
<path d="M3295 1547 c-23 -36 -29 -83 -15 -133 15 -52 38 -68 86 -59 33 6 34
5 34 -24 0 -38 -27 -54 -78 -45 -35 6 -36 5 -17 -10 30 -23 78 -20 103 7 20
21 22 34 22 153 l0 129 -60 3 c-53 2 -61 -1 -75 -21z m94 -11 c7 -9 11 -41 9
-81 -3 -74 -19 -91 -65 -74 -21 8 -23 15 -23 77 0 39 5 73 12 80 16 16 53 15
67 -2z"/>
<path d="M3507 1563 c-9 -8 -9 -176 -1 -197 14 -37 24 3 24 100 0 95 -5 116
-23 97z"/>
<path d="M3622 1545 c-27 -34 -35 -85 -20 -131 16 -49 51 -69 101 -60 52 10
46 25 -8 23 -49 -2 -65 10 -65 50 0 20 6 22 58 25 l57 3 -1 42 c-1 55 -17 73
-64 73 -29 0 -43 -6 -58 -25z m91 -16 c18 -29 1 -49 -43 -49 -35 0 -40 3 -40
23 0 13 6 29 12 35 17 17 58 11 71 -9z"/>
<path d="M3827 1552 c-34 -38 -19 -65 58 -108 11 -6 21 -23 23 -37 4 -36 -31
-46 -69 -18 -27 20 -45 17 -31 -5 26 -41 110 -41 131 0 18 33 1 61 -55 88 -38
18 -45 25 -42 47 4 31 37 40 61 17 17 -17 37 -21 37 -8 0 18 -38 42 -67 42
-16 0 -37 -8 -46 -18z"/>
<path d="M4340 1563 c0 -4 8 -32 19 -62 10 -31 24 -75 31 -98 16 -54 36 -55
50 -4 6 22 19 68 30 102 11 34 18 65 14 68 -8 9 -34 -30 -34 -51 0 -24 -30
-98 -40 -98 -4 0 -10 12 -13 28 -17 85 -30 122 -43 122 -8 0 -14 -3 -14 -7z"/>
</g>
</svg>
